<svg width="800" height="800" viewBox="0 0 800 800" fill="none" xmlns="http://www.w3.org/2000/svg">
<path d="M700 266.667L633.333 666.667H166.667L100 266.667M700 266.667L516.667 416.667L400 233.333M700 266.667C727.613 266.667 750 244.281 750 216.667C750 189.052 727.613 166.667 700 166.667C672.387 166.667 650 189.052 650 216.667C650 244.281 672.387 266.667 700 266.667ZM100 266.667L283.333 416.667L400 233.333M100 266.667C127.614 266.667 150 244.281 150 216.667C150 189.052 127.614 166.667 100 166.667C72.3857 166.667 50 189.052 50 216.667C50 244.281 72.3857 266.667 100 266.667ZM400 233.333C427.613 233.333 450 210.948 450 183.333C450 155.719 427.613 133.333 400 133.333C372.387 133.333 350 155.719 350 183.333C350 210.948 372.387 233.333 400 233.333Z" stroke="white" stroke-width="50" stroke-linecap="round" stroke-linejoin="round"/>
</svg>
